<svg width="206" height="206" viewBox="0 0 206 206" fill="none" xmlns="http://www.w3.org/2000/svg">
<path d="M146 0H60C26.8629 0 0 26.8629 0 60V146C0 179.137 26.8629 206 60 206H146C179.137 206 206 179.137 206 146V60C206 26.8629 179.137 0 146 0Z" fill="#211915"/>
<path d="M146 6H60C30.1766 6 6 30.1766 6 60V146C6 175.823 30.1766 200 60 200H146C175.823 200 200 175.823 200 146V60C200 30.1766 175.823 6 146 6Z" stroke="#D6BA5E" stroke-width="12"/>
<g filter="url(#filter0_d_201_71)">
<mask id="path-3-outside-1_201_71" maskUnits="userSpaceOnUse" x="141.047" y="119.357" width="18" height="19" fill="black">
<rect fill="white" x="141.047" y="119.357" width="18" height="19"/>
<path fill-rule="evenodd" clip-rule="evenodd" d="M149.789 120.359C147.268 127.381 147.447 134.402 142.047 137.823C148.759 135.955 154.534 131.654 158.247 125.759C156.627 127.559 154.826 129.359 153.026 131.159L151.766 132.419V130.619C151.735 129.232 151.615 127.849 151.406 126.478C151.058 124.392 150.515 122.342 149.786 120.357"/>
</mask>
<path fill-rule="evenodd" clip-rule="evenodd" d="M149.789 120.359C147.268 127.381 147.447 134.402 142.047 137.823C148.759 135.955 154.534 131.654 158.247 125.759C156.627 127.559 154.826 129.359 153.026 131.159L151.766 132.419V130.619C151.735 129.232 151.615 127.849 151.406 126.478C151.058 124.392 150.515 122.342 149.786 120.357" fill="#D6BA5E"/>
<path d="M142.047 137.823L141.967 137.696C141.904 137.736 141.88 137.816 141.91 137.884C141.94 137.952 142.016 137.987 142.087 137.968L142.047 137.823ZM158.247 125.759L158.374 125.839C158.415 125.773 158.4 125.686 158.337 125.639C158.275 125.592 158.188 125.601 158.135 125.659L158.247 125.759ZM153.026 131.159L153.132 131.265L153.132 131.265L153.026 131.159ZM151.766 132.419H151.616C151.616 132.48 151.653 132.534 151.709 132.558C151.765 132.581 151.829 132.568 151.872 132.525L151.766 132.419ZM151.766 130.619H151.916L151.916 130.616L151.766 130.619ZM151.406 126.478L151.554 126.455L151.554 126.453L151.406 126.478ZM149.648 120.308C149.015 122.071 148.552 123.833 148.13 125.533C147.707 127.235 147.325 128.872 146.854 130.397C145.913 133.445 144.622 136.014 141.967 137.696L142.127 137.95C144.872 136.211 146.192 133.559 147.141 130.486C147.615 128.95 147.999 127.301 148.421 125.605C148.843 123.907 149.303 122.158 149.93 120.41L149.648 120.308ZM142.087 137.968C148.835 136.09 154.641 131.766 158.374 125.839L158.12 125.679C154.427 131.543 148.683 135.82 142.007 137.678L142.087 137.968ZM158.135 125.659C156.519 127.455 154.721 129.252 152.92 131.053L153.132 131.265C154.931 129.466 156.735 127.663 158.358 125.859L158.135 125.659ZM152.92 131.053L151.66 132.313L151.872 132.525L153.132 131.265L152.92 131.053ZM151.916 132.419V130.619H151.616V132.419H151.916ZM151.916 130.616C151.885 129.223 151.764 127.833 151.554 126.455L151.258 126.501C151.466 127.865 151.586 129.242 151.616 130.622L151.916 130.616ZM151.554 126.453C151.204 124.358 150.659 122.3 149.927 120.305L149.645 120.409C150.371 122.385 150.911 124.426 151.258 126.503L151.554 126.453Z" fill="black" mask="url(#path-3-outside-1_201_71)"/>
<path fill-rule="evenodd" clip-rule="evenodd" d="M151.769 129.899C150.329 132.96 148.528 135.48 145.828 136.921C156.628 134.58 160.228 127.559 162.752 119.997C161.638 121.726 160.372 123.352 158.971 124.858C157.171 127.019 155.01 128.999 153.03 130.979L151.77 132.239V130.439C151.77 130.259 151.77 130.079 151.77 129.899" fill="#D6BA5E"/>
<path fill-rule="evenodd" clip-rule="evenodd" d="M41.763 116.218C42.303 114.778 42.663 113.337 43.383 111.718C64.628 72.649 91.094 43.302 141.866 57.345C138.266 51.223 78.312 33.759 36 89.032C31.139 94.613 28.258 99.832 27.718 104.332L38.343 93.713C32.221 100.194 27.72 107.756 27 117.838L39.783 102.175C32.1851 113.171 28.7396 126.507 30.061 139.807L43.384 111.537L41.763 116.218ZM54.906 134.762L54.726 135.662L52.746 159.428C48.065 151.686 45.364 141.244 46.805 125.04L39.243 150.066C36.902 140.884 37.263 131.882 39.603 124.86C55.807 89.752 74.531 61.307 108.019 55.907C78.492 69.767 59.408 94.433 54.907 134.762H54.906ZM139.166 59.144C72.73 55.723 58.866 120.358 83.893 157.987L73.631 149.887C67.51 140.705 64.631 129.902 65.531 116.939C60.49 134.039 65.351 151.687 71.652 169.511C64.09 161.769 57.252 152.947 54.908 134.943C59.229 112.438 72.908 72.108 111.981 55.543C121.703 53.563 129.081 54.283 141.868 57.523C142.407 58.425 141.687 59.145 139.166 59.145V59.144Z" fill="#D6BA5E"/>
<path fill-rule="evenodd" clip-rule="evenodd" d="M41.763 116.218C42.303 114.778 42.663 113.337 43.383 111.718C64.628 72.649 91.094 43.302 141.866 57.345C138.266 51.223 78.312 33.759 36 89.032C31.139 94.613 28.258 99.832 27.718 104.332L38.343 93.713C32.221 100.194 27.72 107.756 27 117.838L39.783 102.175C32.1851 113.171 28.7396 126.507 30.061 139.807L43.384 111.537L41.763 116.218ZM54.906 134.762L54.726 135.662L52.746 159.428C48.065 151.686 45.364 141.244 46.805 125.04L39.243 150.066C36.902 140.884 37.263 131.882 39.603 124.86C55.807 89.752 74.531 61.307 108.019 55.907C78.492 69.767 59.408 94.433 54.907 134.762H54.906ZM139.166 59.144C72.73 55.723 58.866 120.358 83.893 157.987L73.631 149.887C67.51 140.705 64.631 129.902 65.531 116.939C60.49 134.039 65.351 151.687 71.652 169.511C64.09 161.769 57.252 152.947 54.908 134.943C59.229 112.438 72.908 72.108 111.981 55.543C121.703 53.563 129.081 54.283 141.868 57.523C142.407 58.425 141.687 59.145 139.166 59.145V59.144Z" fill="#D6BA5E"/>
<path fill-rule="evenodd" clip-rule="evenodd" d="M83.712 129.182L80.112 145.746L81.552 153.488L84.973 153.668C84.7841 153.486 84.6501 153.254 84.5865 153C84.5228 152.745 84.532 152.478 84.613 152.228C84.7477 151.957 84.9307 151.713 85.153 151.508C85.333 151.148 85.693 150.968 86.053 150.608C86.5154 150.222 87.0765 149.972 87.673 149.888C88.3112 149.899 88.934 150.086 89.473 150.428L89.833 150.788C90.013 150.608 90.193 150.248 90.553 150.068C91.0154 149.682 91.5765 149.432 92.173 149.348C92.8112 149.359 93.434 149.546 93.973 149.888C94.153 150.068 94.333 150.248 94.333 150.428L94.873 149.888C95.3354 149.502 95.8965 149.252 96.493 149.168H96.853L96.493 148.808L93.432 148.628C83.353 146.282 83.173 134.763 83.712 129.182Z" fill="#D6BA5E"/>
<path d="M131.855 93.5053C131.844 93.4773 131.817 93.4586 131.787 93.458C131.756 93.4574 131.729 93.4749 131.716 93.5025C128.742 100.172 127.827 105.405 128.112 109.694C128.397 113.983 129.883 117.32 131.699 120.197C132.607 121.634 133.597 122.957 134.561 124.226C134.654 124.348 134.747 124.47 134.839 124.591C135.705 125.729 136.54 126.826 137.267 127.931C138.875 130.375 139.945 132.844 139.632 135.835C139.628 135.873 139.653 135.907 139.689 135.916C139.726 135.925 139.763 135.905 139.777 135.87C143.206 127.028 142.438 119.493 140.206 112.639C139.09 109.214 137.609 105.958 136.103 102.796C135.831 102.222 135.557 101.652 135.285 101.085C134.054 98.5202 132.849 96.0091 131.855 93.5053Z" fill="#D6BA5E" stroke="black" stroke-width="0.15" stroke-miterlimit="10" stroke-linejoin="round"/>
<mask id="path-10-outside-2_201_71" maskUnits="userSpaceOnUse" x="128.012" y="92.533" width="17" height="43" fill="black">
<rect fill="white" x="128.012" y="92.533" width="17" height="43"/>
<path fill-rule="evenodd" clip-rule="evenodd" d="M131.785 93.533C121.522 118.559 143.127 122.88 142.052 135.123C148.714 117.299 136.652 105.776 131.79 93.533"/>
</mask>
<path fill-rule="evenodd" clip-rule="evenodd" d="M131.785 93.533C121.522 118.559 143.127 122.88 142.052 135.123C148.714 117.299 136.652 105.776 131.79 93.533" fill="#D6BA5E"/>
<path d="M142.052 135.123L141.903 135.11C141.896 135.185 141.946 135.253 142.019 135.269C142.092 135.286 142.166 135.246 142.193 135.176L142.052 135.123ZM131.646 93.4761C129.073 99.7515 128.492 104.741 129.062 108.888C129.632 113.035 131.35 116.326 133.35 119.207C134.349 120.647 135.42 121.985 136.453 123.276C137.487 124.568 138.481 125.81 139.334 127.063C141.039 129.568 142.167 132.099 141.903 135.11L142.201 135.136C142.475 132.026 141.305 129.425 139.582 126.894C138.721 125.63 137.719 124.378 136.687 123.088C135.653 121.797 134.589 120.466 133.596 119.036C131.612 116.178 129.92 112.931 129.359 108.847C128.798 104.763 129.366 99.8275 131.924 93.5899L131.646 93.4761ZM142.193 135.176C145.541 126.218 144.182 118.841 141.381 112.177C139.982 108.849 138.222 105.696 136.513 102.617C134.801 99.5352 133.141 96.5279 131.929 93.4776L131.651 93.5884C132.87 96.6596 134.541 99.6838 136.25 102.763C137.962 105.845 139.713 108.983 141.104 112.293C143.884 118.908 145.226 126.204 141.911 135.07L142.193 135.176Z" fill="black" mask="url(#path-10-outside-2_201_71)"/>
<mask id="path-12-outside-3_201_71" maskUnits="userSpaceOnUse" x="129.388" y="91.993" width="17" height="40" fill="black">
<rect fill="white" x="129.388" y="91.993" width="17" height="40"/>
<path fill-rule="evenodd" clip-rule="evenodd" d="M131.964 92.993C124.582 107.576 145.647 119.459 143.487 131.342C151.769 114.418 135.745 105.776 131.964 92.993"/>
</mask>
<path fill-rule="evenodd" clip-rule="evenodd" d="M131.964 92.993C124.582 107.576 145.647 119.459 143.487 131.342C151.769 114.418 135.745 105.776 131.964 92.993" fill="#D6BA5E"/>
<path d="M143.487 131.342L143.339 131.315C143.326 131.389 143.369 131.461 143.44 131.485C143.511 131.508 143.589 131.475 143.622 131.408L143.487 131.342ZM131.83 92.9253C128.097 100.299 131.57 106.986 135.641 113.262C137.684 116.41 139.875 119.452 141.426 122.456C142.976 125.458 143.871 128.392 143.339 131.315L143.635 131.369C144.183 128.35 143.255 125.343 141.693 122.319C140.133 119.297 137.924 116.229 135.893 113.098C131.818 106.816 128.449 100.27 132.098 93.0607L131.83 92.9253ZM143.622 131.408C145.704 127.154 146.262 123.411 145.861 119.99C145.461 116.572 144.106 113.485 142.379 110.539C140.654 107.598 138.547 104.777 136.649 101.915C134.747 99.0461 133.047 96.1242 132.108 92.9505L131.82 93.0355C132.772 96.2533 134.492 99.2053 136.399 102.081C138.311 104.963 140.4 107.758 142.12 110.69C143.836 113.618 145.17 116.664 145.563 120.025C145.956 123.384 145.411 127.068 143.352 131.276L143.622 131.408Z" fill="black" mask="url(#path-12-outside-3_201_71)"/>
<path fill-rule="evenodd" clip-rule="evenodd" d="M139.706 61.666C113.24 86.512 152.489 105.416 152.306 130.442C157.347 125.401 161.128 121.62 163.649 116.759C162.56 114.165 161.105 111.74 159.328 109.559C156.325 105.864 153.077 102.375 149.606 99.117C146.196 95.8528 143.009 92.3643 140.064 88.675C137.543 85.254 135.203 81.475 134.483 77.332C133.583 71.391 136.103 66.169 139.704 61.668L139.706 61.666ZM142.765 59.147L142.585 59.327L142.765 59.147Z" fill="#D6BA5E"/>
<path d="M139.706 61.666C113.24 86.512 152.489 105.416 152.306 130.442C157.347 125.401 161.128 121.62 163.649 116.759C162.56 114.165 161.105 111.74 159.328 109.559C156.325 105.864 153.077 102.375 149.606 99.117C146.196 95.8528 143.009 92.3643 140.064 88.675C137.543 85.254 135.203 81.475 134.483 77.332C133.583 71.391 136.103 66.169 139.704 61.668L139.706 61.666ZM142.765 59.147L142.585 59.327L142.765 59.147Z" fill="#D6BA5E"/>
<path fill-rule="evenodd" clip-rule="evenodd" d="M142.227 59.865C117.741 85.791 164.372 100.194 165.633 121.799C169.594 116.938 172.295 111.899 173.195 106.135C169.774 100.914 163.833 97.135 158.795 93.892C154.998 91.6407 151.331 89.1761 147.812 86.51C144.751 84.169 141.691 81.289 140.25 77.51C137.369 71.569 139.17 65.447 142.23 59.866" fill="#D6BA5E"/>
<g filter="url(#filter1_d_201_71)">
<path d="M142.227 59.865C117.741 85.791 164.372 100.194 165.633 121.799C169.594 116.938 172.295 111.899 173.195 106.135C169.774 100.914 163.833 97.135 158.795 93.892C154.998 91.6407 151.331 89.1761 147.812 86.51C144.751 84.169 141.691 81.289 140.25 77.51C137.369 71.569 139.17 65.447 142.23 59.866" fill="#D6BA5E"/>
</g>
<path fill-rule="evenodd" clip-rule="evenodd" d="M144.388 57.705C124.583 88.672 169.772 89.572 176.072 110.817C191.372 70.488 140.064 81.47 144.385 57.705" fill="#D6BA5E"/>
<path d="M144.388 57.705C124.583 88.672 169.772 89.572 176.072 110.817C191.372 70.488 140.064 81.47 144.385 57.705" fill="#D6BA5E"/>
<g filter="url(#filter2_d_201_71)">
<path d="M175.354 76.429C174.634 73.188 173.013 71.029 169.593 70.308C173.554 54.284 135.385 59.145 143.847 37C144.927 51.763 191.918 44.382 175.714 68.147C176.582 69.3716 177.017 70.8502 176.952 72.3496C176.887 73.8491 176.325 75.2843 175.354 76.429" fill="#D6BA5E"/>
</g>
<g filter="url(#filter3_d_201_71)">
<path fill-rule="evenodd" clip-rule="evenodd" d="M155.91 37.18C154.29 40.241 153.569 42.941 154.29 45.28L171.754 50.68C165.993 47.799 156.454 44.38 155.91 37.18" fill="#D6BA5E"/>
</g>
<path fill-rule="evenodd" clip-rule="evenodd" d="M155.19 59.865C162.39 60.405 165.99 67.065 165.452 68.507C162.752 71.207 155.73 66.166 155.19 59.865Z" fill="#D6BA5E"/>
<g filter="url(#filter4_d_201_71)">
<path fill-rule="evenodd" clip-rule="evenodd" d="M128.184 83.631C117.201 107.216 70.751 84.891 89.115 146.286C82.993 95.514 127.284 121.8 128.184 83.631Z" fill="#D6BA5E"/>
</g>
<path fill-rule="evenodd" clip-rule="evenodd" d="M90.194 151.686C90.374 151.506 90.554 151.146 90.914 150.966L91.994 150.426C92.382 150.435 92.7584 150.56 93.074 150.786C93.2993 151.032 93.4272 151.352 93.434 151.686V153.306C93.284 153.797 93.1036 154.278 92.894 154.746C92.714 155.106 92.354 155.106 92.354 154.926V154.026C92.1685 153.584 91.8551 153.208 91.454 152.946C91.0541 152.722 90.6318 152.541 90.194 152.406C89.834 152.406 89.834 152.226 90.014 152.046C90.014 151.866 90.014 151.866 90.194 151.686V151.686ZM94.515 151.506C94.695 151.326 94.875 150.966 95.235 150.786L96.315 150.246C96.703 150.255 97.0794 150.38 97.395 150.606C97.6203 150.852 97.7482 151.172 97.755 151.506V153.126C97.605 153.617 97.4246 154.098 97.215 154.566C97.035 154.926 96.675 154.926 96.675 154.746V153.846C96.4895 153.404 96.1761 153.028 95.775 152.766C95.415 152.586 94.875 152.406 94.515 152.226C94.4467 152.155 94.395 152.07 94.3639 151.976C94.3328 151.883 94.3229 151.784 94.335 151.686L94.515 151.506ZM85.873 152.046C86.053 151.866 86.233 151.506 86.593 151.326L87.673 150.786C88.061 150.795 88.4374 150.92 88.753 151.146C88.9783 151.392 89.1062 151.712 89.113 152.046V153.666C88.963 154.157 88.7826 154.638 88.573 155.106C88.393 155.466 88.033 155.466 88.033 155.286V154.386C87.8475 153.944 87.5341 153.568 87.133 153.306C86.773 153.126 86.233 152.946 85.873 152.766C85.8047 152.695 85.753 152.61 85.7219 152.516C85.6908 152.423 85.6809 152.324 85.693 152.226C85.694 152.407 85.694 152.226 85.874 152.046H85.873Z" fill="#D6BA5E"/>
<g filter="url(#filter5_d_201_71)">
<path fill-rule="evenodd" clip-rule="evenodd" d="M110.36 112.258C97.397 112.438 92.175 125.758 90.915 132.783C107.479 131.343 96.676 116.583 110.36 112.258" fill="#D6BA5E"/>
</g>
<path fill-rule="evenodd" clip-rule="evenodd" d="M117.74 122.7L114.14 139.264L115.58 147.006L119.001 147.186C118.812 147.004 118.678 146.772 118.614 146.518C118.551 146.263 118.56 145.996 118.641 145.746C118.776 145.475 118.959 145.231 119.181 145.026C119.361 144.666 119.721 144.486 120.081 144.126C120.543 143.74 121.104 143.49 121.701 143.406C122.339 143.417 122.962 143.604 123.501 143.946L123.861 144.306C124.041 144.126 124.221 143.766 124.581 143.586C125.043 143.2 125.604 142.95 126.201 142.866C126.839 142.877 127.462 143.064 128.001 143.406C128.181 143.586 128.361 143.766 128.361 143.946L128.901 143.406C129.363 143.02 129.924 142.77 130.521 142.686H130.881L130.521 142.326L127.821 142.146C117.381 139.8 117.201 128.281 117.74 122.7Z" fill="#D6BA5E"/>
<path fill-rule="evenodd" clip-rule="evenodd" d="M136.105 132.242L132.505 148.806L133.945 156.548L137.366 156.728C137.177 156.546 137.043 156.314 136.979 156.06C136.916 155.805 136.925 155.538 137.006 155.288C137.141 155.017 137.324 154.773 137.546 154.568C137.726 154.208 138.086 154.028 138.446 153.668C138.908 153.282 139.469 153.032 140.066 152.948C140.704 152.959 141.327 153.146 141.866 153.488L142.226 153.848C142.406 153.668 142.586 153.308 142.946 153.128C143.408 152.742 143.969 152.492 144.566 152.408C145.204 152.419 145.827 152.606 146.366 152.948C146.546 153.128 146.726 153.308 146.726 153.488L147.266 152.948C147.728 152.562 148.289 152.312 148.886 152.228H149.246L148.886 151.868L146.186 151.688C135.746 149.342 135.566 137.823 136.105 132.242Z" fill="#D6BA5E"/>
<path fill-rule="evenodd" clip-rule="evenodd" d="M142.587 154.747C142.767 154.567 142.947 154.207 143.307 154.027L144.387 153.487C144.775 153.496 145.151 153.621 145.467 153.847C145.692 154.093 145.82 154.413 145.827 154.747V156.367C145.677 156.858 145.497 157.339 145.287 157.807C145.107 158.167 144.747 158.167 144.747 157.987V157.087C144.562 156.645 144.248 156.269 143.847 156.007C143.487 155.827 142.947 155.647 142.587 155.467C142.519 155.396 142.467 155.311 142.436 155.217C142.405 155.124 142.395 155.025 142.407 154.927C142.407 155.107 142.407 154.927 142.587 154.747V154.747ZM146.908 154.567C147.088 154.387 147.268 154.027 147.628 153.847L148.708 153.307C149.096 153.316 149.472 153.441 149.788 153.667C150.013 153.913 150.141 154.233 150.148 154.567V156.187C149.998 156.678 149.818 157.159 149.608 157.627C149.428 157.987 149.068 157.987 149.068 157.807V156.907C148.883 156.465 148.569 156.089 148.168 155.827C147.808 155.647 147.268 155.467 146.908 155.287C146.84 155.216 146.788 155.131 146.757 155.037C146.726 154.944 146.716 154.845 146.728 154.747L146.908 154.567ZM138.266 155.107C138.446 154.927 138.626 154.567 138.986 154.387L140.066 153.847C140.454 153.856 140.83 153.981 141.146 154.207C141.371 154.453 141.499 154.773 141.506 155.107V156.727C141.356 157.218 141.176 157.699 140.966 158.167C140.786 158.527 140.426 158.527 140.426 158.347V157.447C140.241 157.005 139.927 156.629 139.526 156.367C139.166 156.187 138.626 156.007 138.266 155.827C138.198 155.756 138.146 155.671 138.115 155.577C138.084 155.484 138.074 155.385 138.086 155.287C137.906 155.468 138.086 155.468 138.266 155.107V155.107Z" fill="#D6BA5E"/>
<path fill-rule="evenodd" clip-rule="evenodd" d="M148.888 136.923L147.448 143.765L148.708 150.247L151.408 150.427C151.247 150.264 151.142 150.054 151.11 149.827C151.077 149.6 151.119 149.368 151.228 149.167C151.408 148.987 151.408 148.807 151.588 148.627C151.768 148.447 151.948 148.087 152.308 147.907C152.649 147.58 153.096 147.388 153.568 147.367C154.1 147.353 154.617 147.546 155.008 147.907L155.368 148.267L155.908 147.727C156.249 147.4 156.696 147.208 157.168 147.187C157.7 147.173 158.217 147.366 158.608 147.727L158.968 148.087L159.328 147.727C159.669 147.4 160.116 147.208 160.588 147.187H160.768L160.588 146.827L158.247 146.647C153.026 145.387 151.047 141.066 150.325 136.925L148.888 136.923Z" fill="#D6BA5E"/>
<path fill-rule="evenodd" clip-rule="evenodd" d="M155.91 148.806L156.45 148.266C156.693 148.035 157.015 147.906 157.35 147.906C157.685 147.906 158.007 148.035 158.25 148.266C158.43 148.446 158.43 148.626 158.61 148.986V150.426C158.463 150.859 158.283 151.281 158.07 151.686C157.89 151.866 157.71 152.046 157.71 151.866V151.146C157.675 150.948 157.591 150.761 157.465 150.604C157.339 150.447 157.176 150.324 156.99 150.246C156.63 150.066 156.27 150.066 155.91 149.886C155.807 149.793 155.743 149.664 155.73 149.526C155.55 148.986 155.73 148.986 155.91 148.806ZM159.331 148.626L159.871 148.086C160.114 147.855 160.436 147.726 160.771 147.726C161.106 147.726 161.428 147.855 161.671 148.086C161.851 148.266 161.851 148.446 162.031 148.806V150.246C161.884 150.679 161.704 151.101 161.491 151.506C161.311 151.686 161.131 151.866 161.131 151.686V150.966C161.096 150.768 161.012 150.581 160.886 150.424C160.76 150.267 160.597 150.144 160.411 150.066C160.051 149.886 159.691 149.886 159.331 149.706C159.228 149.613 159.164 149.484 159.151 149.346C159.149 148.986 159.149 148.806 159.331 148.626ZM152.131 149.166L152.671 148.626C152.914 148.395 153.236 148.266 153.571 148.266C153.906 148.266 154.228 148.395 154.471 148.626C154.651 148.806 154.651 148.986 154.831 149.346V150.786C154.684 151.219 154.504 151.641 154.291 152.046C154.111 152.226 153.931 152.406 153.931 152.226V151.506C153.896 151.308 153.812 151.121 153.686 150.964C153.56 150.807 153.397 150.684 153.211 150.606C152.851 150.426 152.491 150.426 152.131 150.246C152.028 150.153 151.964 150.024 151.951 149.886C151.949 149.346 152.129 149.346 152.129 149.166H152.131Z" fill="#D6BA5E"/>
<path fill-rule="evenodd" clip-rule="evenodd" d="M124.583 145.025C124.763 144.845 124.943 144.485 125.303 144.305L126.383 143.765C126.771 143.774 127.147 143.899 127.463 144.125C127.688 144.371 127.816 144.691 127.823 145.025V146.645C127.673 147.136 127.493 147.617 127.283 148.085C127.103 148.445 126.743 148.445 126.743 148.265V147.365C126.558 146.923 126.244 146.547 125.843 146.285C125.483 146.105 124.943 145.925 124.583 145.745C124.515 145.674 124.463 145.589 124.432 145.495C124.401 145.402 124.391 145.303 124.403 145.205L124.583 145.025V145.025ZM128.724 145.025C128.904 144.845 129.084 144.485 129.444 144.305L130.524 143.765C130.912 143.774 131.288 143.899 131.604 144.125C131.829 144.371 131.957 144.691 131.964 145.025V146.645C131.814 147.136 131.634 147.617 131.424 148.085C131.244 148.445 130.884 148.445 130.884 148.265V147.365C130.699 146.923 130.385 146.547 129.984 146.285C129.624 146.105 129.084 145.925 128.724 145.745C128.656 145.674 128.604 145.589 128.573 145.495C128.542 145.402 128.532 145.303 128.544 145.205L128.724 145.025ZM120.262 145.565C120.442 145.385 120.622 145.025 120.982 144.845L122.062 144.305C122.45 144.314 122.826 144.439 123.142 144.665C123.367 144.911 123.495 145.231 123.502 145.565V147.185C123.352 147.676 123.172 148.157 122.962 148.625C122.782 148.985 122.422 148.985 122.422 148.805V147.905C122.237 147.463 121.923 147.087 121.522 146.825C121.162 146.645 120.622 146.465 120.262 146.285C120.194 146.214 120.142 146.129 120.111 146.035C120.08 145.942 120.07 145.843 120.082 145.745C119.902 145.745 120.082 145.745 120.262 145.565V145.565Z" fill="#D6BA5E"/>
</g>
<defs>
<filter id="filter0_d_201_71" x="23" y="37" width="160.11" height="140.511" filterUnits="userSpaceOnUse" color-interpolation-filters="sRGB">
<feFlood flood-opacity="0" result="BackgroundImageFix"/>
<feColorMatrix in="SourceAlpha" type="matrix" values="0 0 0 0 0 0 0 0 0 0 0 0 0 0 0 0 0 0 127 0" result="hardAlpha"/>
<feOffset dy="4"/>
<feGaussianBlur stdDeviation="2"/>
<feComposite in2="hardAlpha" operator="out"/>
<feColorMatrix type="matrix" values="0 0 0 0 0 0 0 0 0 0 0 0 0 0 0 0 0 0 0.25 0"/>
<feBlend mode="normal" in2="BackgroundImageFix" result="effect1_dropShadow_201_71"/>
<feBlend mode="normal" in="SourceGraphic" in2="effect1_dropShadow_201_71" result="shape"/>
</filter>
<filter id="filter1_d_201_71" x="131.13" y="59.865" width="46.0652" height="69.934" filterUnits="userSpaceOnUse" color-interpolation-filters="sRGB">
<feFlood flood-opacity="0" result="BackgroundImageFix"/>
<feColorMatrix in="SourceAlpha" type="matrix" values="0 0 0 0 0 0 0 0 0 0 0 0 0 0 0 0 0 0 127 0" result="hardAlpha"/>
<feOffset dy="4"/>
<feGaussianBlur stdDeviation="2"/>
<feComposite in2="hardAlpha" operator="out"/>
<feColorMatrix type="matrix" values="0 0 0 0 0 0 0 0 0 0 0 0 0 0 0 0 0 0 0.25 0"/>
<feBlend mode="normal" in2="BackgroundImageFix" result="effect1_dropShadow_201_71"/>
<feBlend mode="normal" in="SourceGraphic" in2="effect1_dropShadow_201_71" result="shape"/>
</filter>
<filter id="filter2_d_201_71" x="138.619" y="37" width="44.4912" height="47.429" filterUnits="userSpaceOnUse" color-interpolation-filters="sRGB">
<feFlood flood-opacity="0" result="BackgroundImageFix"/>
<feColorMatrix in="SourceAlpha" type="matrix" values="0 0 0 0 0 0 0 0 0 0 0 0 0 0 0 0 0 0 127 0" result="hardAlpha"/>
<feOffset dy="4"/>
<feGaussianBlur stdDeviation="2"/>
<feComposite in2="hardAlpha" operator="out"/>
<feColorMatrix type="matrix" values="0 0 0 0 0 0 0 0 0 0 0 0 0 0 0 0 0 0 0.25 0"/>
<feBlend mode="normal" in2="BackgroundImageFix" result="effect1_dropShadow_201_71"/>
<feBlend mode="normal" in="SourceGraphic" in2="effect1_dropShadow_201_71" result="shape"/>
</filter>
<filter id="filter3_d_201_71" x="150.01" y="37.18" width="25.7435" height="21.5" filterUnits="userSpaceOnUse" color-interpolation-filters="sRGB">
<feFlood flood-opacity="0" result="BackgroundImageFix"/>
<feColorMatrix in="SourceAlpha" type="matrix" values="0 0 0 0 0 0 0 0 0 0 0 0 0 0 0 0 0 0 127 0" result="hardAlpha"/>
<feOffset dy="4"/>
<feGaussianBlur stdDeviation="2"/>
<feComposite in2="hardAlpha" operator="out"/>
<feColorMatrix type="matrix" values="0 0 0 0 0 0 0 0 0 0 0 0 0 0 0 0 0 0 0.25 0"/>
<feBlend mode="normal" in2="BackgroundImageFix" result="effect1_dropShadow_201_71"/>
<feBlend mode="normal" in="SourceGraphic" in2="effect1_dropShadow_201_71" result="shape"/>
</filter>
<filter id="filter4_d_201_71" x="80.8667" y="83.631" width="51.3173" height="70.655" filterUnits="userSpaceOnUse" color-interpolation-filters="sRGB">
<feFlood flood-opacity="0" result="BackgroundImageFix"/>
<feColorMatrix in="SourceAlpha" type="matrix" values="0 0 0 0 0 0 0 0 0 0 0 0 0 0 0 0 0 0 127 0" result="hardAlpha"/>
<feOffset dy="4"/>
<feGaussianBlur stdDeviation="2"/>
<feComposite in2="hardAlpha" operator="out"/>
<feColorMatrix type="matrix" values="0 0 0 0 0 0 0 0 0 0 0 0 0 0 0 0 0 0 0.25 0"/>
<feBlend mode="normal" in2="BackgroundImageFix" result="effect1_dropShadow_201_71"/>
<feBlend mode="normal" in="SourceGraphic" in2="effect1_dropShadow_201_71" result="shape"/>
</filter>
<filter id="filter5_d_201_71" x="86.915" y="112.258" width="27.445" height="28.525" filterUnits="userSpaceOnUse" color-interpolation-filters="sRGB">
<feFlood flood-opacity="0" result="BackgroundImageFix"/>
<feColorMatrix in="SourceAlpha" type="matrix" values="0 0 0 0 0 0 0 0 0 0 0 0 0 0 0 0 0 0 127 0" result="hardAlpha"/>
<feOffset dy="4"/>
<feGaussianBlur stdDeviation="2"/>
<feComposite in2="hardAlpha" operator="out"/>
<feColorMatrix type="matrix" values="0 0 0 0 0 0 0 0 0 0 0 0 0 0 0 0 0 0 0.25 0"/>
<feBlend mode="normal" in2="BackgroundImageFix" result="effect1_dropShadow_201_71"/>
<feBlend mode="normal" in="SourceGraphic" in2="effect1_dropShadow_201_71" result="shape"/>
</filter>
</defs>
</svg>
