<?xml version="1.0" encoding="iso-8859-1"?>
<!-- Generator: Adobe Illustrator 19.0.0, SVG Export Plug-In . SVG Version: 6.00 Build 0)  -->
<svg version="1.1" id="Layer_1" xmlns="http://www.w3.org/2000/svg" xmlns:xlink="http://www.w3.org/1999/xlink" x="0px" y="0px"
	 viewBox="0 0 507.95 507.95" style="enable-background:new 0 0 507.95 507.95;" xml:space="preserve">
<g>
	<g>
		<path d="M505.45,213.316l-31.1-44.9c-4.4-6.4-13.2-8-19.6-3.6l-10.4,7.2c-12.4-39.6-32.4-68.6-65.1-94.1l10.4-7.2
			c6.4-4.4,8-13.2,3.6-19.6l-31-45c-4.4-6.4-13.2-8-19.6-3.6l-138.5,95.7c-6.4,4.4-8,13.2-3.6,19.6l31.1,44.9
			c4.4,6.4,13.2,8,19.6,3.6l10.4-7.2c1.7,5.3,3.5,10.5,5.5,15.4l-249.3,172.4c-18.8,13-23.5,38.8-10.5,57.6
			c13,18.8,38.8,23.5,57.6,10.5l249.3-172.3c3.9,3.7,8,7.2,12.4,10.6l-10.4,7.2c-6.4,4.4-8,13.2-3.6,19.6l31.1,44.9
			c4.4,6.4,13.2,8,19.6,3.6l138.5-95.7C508.25,228.516,509.85,219.716,505.45,213.316z M246.75,135.216l-15-21.7l115.3-79.7l15,21.7
			L246.75,135.216z M48.85,391.916c-6,4.1-14.2,2.6-18.4-3.3c-4.1-6-2.6-14.2,3.3-18.4l245.6-169.8c4.5,7.6,9.4,14.8,15,21.7
			L48.85,391.916z M286.05,142.416l68.8-47.6c34.8,25.1,53.8,52.6,65.1,94.1l-68.8,47.6
			C316.35,211.316,297.35,183.816,286.05,142.416z M358.95,297.416l-15-21.7l115.3-79.7l15,21.7L358.95,297.416z"/>
	</g>
</g>
<g>
	<g>
		<path d="M493.85,423.316h-24v-29.5c0-7.8-6.3-14.1-14.1-14.1h-134.9c-7.8,0-14.1,6.3-14.1,14.1v29.5h-24
			c-7.8,0-14.1,6.3-14.1,14.1v56.4c0,7.8,6.3,14.1,14.1,14.1h211.1c7.8,0,14.1-6.3,14.1-14.1v-56.4
			C507.95,429.716,501.65,423.316,493.85,423.316z M479.75,479.816L479.75,479.816h-182.9v-28.2h24c7.8,0,14.1-6.3,14.1-14.1v-29.5
			h106.7v29.5c0,7.8,6.3,14.1,14.1,14.1h24V479.816z"/>
	</g>
</g>
<g>
</g>
<g>
</g>
<g>
</g>
<g>
</g>
<g>
</g>
<g>
</g>
<g>
</g>
<g>
</g>
<g>
</g>
<g>
</g>
<g>
</g>
<g>
</g>
<g>
</g>
<g>
</g>
<g>
</g>
</svg>
