<svg width="157" height="133" viewBox="0 0 157 133" fill="none" xmlns="http://www.w3.org/2000/svg">
<path fill-rule="evenodd" clip-rule="evenodd" d="M122.789 83.359C120.268 90.381 120.447 97.402 115.047 100.823C121.759 98.955 127.534 94.6541 131.247 88.759C129.627 90.559 127.826 92.359 126.026 94.159L124.766 95.419V93.619C124.735 92.2324 124.615 90.8491 124.406 89.478C124.058 87.3917 123.515 85.3425 122.786 83.357" fill="#211915"/>
<path d="M122.789 83.359C120.268 90.381 120.447 97.402 115.047 100.823C121.759 98.955 127.534 94.6541 131.247 88.759C129.627 90.559 127.826 92.359 126.026 94.159L124.766 95.419V93.619C124.735 92.2324 124.615 90.8491 124.406 89.478C124.058 87.3917 123.515 85.3425 122.786 83.357" stroke="black" stroke-width="0.15" stroke-miterlimit="10"/>
<path fill-rule="evenodd" clip-rule="evenodd" d="M124.769 92.899C123.329 95.96 121.528 98.48 118.828 99.921C129.628 97.58 133.228 90.559 135.752 82.997C134.638 84.7257 133.372 86.3524 131.971 87.858C130.171 90.019 128.01 91.999 126.03 93.979L124.77 95.239V93.439C124.77 93.259 124.77 93.079 124.77 92.899" fill="#211915"/>
<path fill-rule="evenodd" clip-rule="evenodd" d="M14.763 79.218C15.303 77.778 15.663 76.337 16.383 74.718C37.628 35.649 64.094 6.302 114.866 20.345C111.266 14.223 51.312 -3.241 9 52.032C4.139 57.613 1.258 62.832 0.718002 67.332L11.343 56.713C5.221 63.194 0.72 70.756 0 80.838L12.783 65.175C5.18508 76.1705 1.73961 89.5072 3.061 102.807L16.384 74.537L14.763 79.218ZM27.906 97.762L27.726 98.662L25.746 122.428C21.065 114.686 18.364 104.244 19.805 88.04L12.243 113.066C9.902 103.884 10.263 94.882 12.603 87.86C28.807 52.752 47.531 24.307 81.019 18.907C51.492 32.767 32.408 57.433 27.907 97.762H27.906ZM112.166 22.144C45.73 18.723 31.866 83.358 56.893 120.987L46.631 112.887C40.51 103.705 37.631 92.902 38.531 79.939C33.49 97.039 38.351 114.687 44.652 132.511C37.09 124.769 30.252 115.947 27.908 97.943C32.229 75.438 45.908 35.108 84.981 18.543C94.703 16.563 102.081 17.283 114.868 20.523C115.407 21.425 114.687 22.145 112.166 22.145V22.144Z" fill="url(#paint0_linear_105_38)"/>
<path fill-rule="evenodd" clip-rule="evenodd" d="M14.763 79.218C15.303 77.778 15.663 76.337 16.383 74.718C37.628 35.649 64.094 6.302 114.866 20.345C111.266 14.223 51.312 -3.241 9 52.032C4.139 57.613 1.258 62.832 0.718002 67.332L11.343 56.713C5.221 63.194 0.72 70.756 0 80.838L12.783 65.175C5.18508 76.1705 1.73961 89.5072 3.061 102.807L16.384 74.537L14.763 79.218ZM27.906 97.762L27.726 98.662L25.746 122.428C21.065 114.686 18.364 104.244 19.805 88.04L12.243 113.066C9.902 103.884 10.263 94.882 12.603 87.86C28.807 52.752 47.531 24.307 81.019 18.907C51.492 32.767 32.408 57.433 27.907 97.762H27.906ZM112.166 22.144C45.73 18.723 31.866 83.358 56.893 120.987L46.631 112.887C40.51 103.705 37.631 92.902 38.531 79.939C33.49 97.039 38.351 114.687 44.652 132.511C37.09 124.769 30.252 115.947 27.908 97.943C32.229 75.438 45.908 35.108 84.981 18.543C94.703 16.563 102.081 17.283 114.868 20.523C115.407 21.425 114.687 22.145 112.166 22.145V22.144Z" fill="#211915"/>
<path fill-rule="evenodd" clip-rule="evenodd" d="M56.712 92.182L53.112 108.746L54.552 116.488L57.973 116.668C57.7841 116.486 57.6501 116.254 57.5865 116C57.5228 115.745 57.532 115.478 57.613 115.228C57.7477 114.957 57.9307 114.713 58.153 114.508C58.333 114.148 58.693 113.968 59.053 113.608C59.5154 113.222 60.0765 112.972 60.673 112.888C61.3112 112.899 61.934 113.086 62.473 113.428L62.833 113.788C63.013 113.608 63.193 113.248 63.553 113.068C64.0154 112.682 64.5765 112.432 65.173 112.348C65.8112 112.359 66.434 112.546 66.973 112.888C67.153 113.068 67.333 113.248 67.333 113.428L67.873 112.888C68.3354 112.502 68.8965 112.252 69.493 112.168H69.853L69.493 111.808L66.432 111.628C56.353 109.282 56.173 97.763 56.712 92.182Z" fill="#211915"/>
<path fill-rule="evenodd" clip-rule="evenodd" d="M104.785 56.533C92.902 83.179 113.967 86.78 112.707 98.843C119.549 81.199 109.646 68.776 104.785 56.533Z" fill="#211915" stroke="black" stroke-width="0.15" stroke-miterlimit="10"/>
<path fill-rule="evenodd" clip-rule="evenodd" d="M104.785 56.533C94.522 81.559 116.127 85.88 115.052 98.123C121.714 80.299 109.652 68.776 104.79 56.533" fill="#211915"/>
<path d="M104.785 56.533C94.522 81.559 116.127 85.88 115.052 98.123C121.714 80.299 109.652 68.776 104.79 56.533" stroke="black" stroke-width="0.15" stroke-miterlimit="10"/>
<path fill-rule="evenodd" clip-rule="evenodd" d="M104.964 55.993C97.582 70.576 118.647 82.459 116.487 94.342C124.769 77.418 108.745 68.776 104.964 55.993" fill="#211915"/>
<path d="M104.964 55.993C97.582 70.576 118.647 82.459 116.487 94.342C124.769 77.418 108.745 68.776 104.964 55.993" stroke="black" stroke-width="0.15" stroke-miterlimit="10"/>
<path fill-rule="evenodd" clip-rule="evenodd" d="M112.706 24.666C86.24 49.512 125.489 68.416 125.306 93.442C130.347 88.401 134.128 84.62 136.649 79.759C135.56 77.1648 134.105 74.7402 132.328 72.559C129.325 68.864 126.077 65.3755 122.606 62.117C119.196 58.8528 116.009 55.3643 113.064 51.675C110.543 48.254 108.203 44.475 107.483 40.332C106.583 34.391 109.103 29.169 112.704 24.668L112.706 24.666ZM115.765 22.147L115.585 22.327L115.765 22.147Z" fill="#211915"/>
<path d="M112.706 24.666C86.24 49.512 125.489 68.416 125.306 93.442C130.347 88.401 134.128 84.62 136.649 79.759C135.56 77.1648 134.105 74.7402 132.328 72.559C129.325 68.864 126.077 65.3755 122.606 62.117C119.196 58.8528 116.009 55.3643 113.064 51.675C110.543 48.254 108.203 44.475 107.483 40.332C106.583 34.391 109.103 29.169 112.704 24.668L112.706 24.666ZM115.765 22.147L115.585 22.327L115.765 22.147Z" fill="#211915"/>
<path fill-rule="evenodd" clip-rule="evenodd" d="M115.227 22.865C90.741 48.791 137.372 63.194 138.633 84.799C142.594 79.938 145.295 74.899 146.195 69.135C142.774 63.914 136.833 60.135 131.795 56.892C127.998 54.6407 124.331 52.1761 120.812 49.51C117.751 47.169 114.691 44.289 113.25 40.51C110.369 34.569 112.17 28.447 115.23 22.866" fill="url(#paint1_linear_105_38)"/>
<g filter="url(#filter0_d_105_38)">
<path d="M115.227 22.865C90.741 48.791 137.372 63.194 138.633 84.799C142.594 79.938 145.295 74.899 146.195 69.135C142.774 63.914 136.833 60.135 131.795 56.892C127.998 54.6407 124.331 52.1761 120.812 49.51C117.751 47.169 114.691 44.289 113.25 40.51C110.369 34.569 112.17 28.447 115.23 22.866" fill="#211915"/>
</g>
<path fill-rule="evenodd" clip-rule="evenodd" d="M117.388 20.705C97.583 51.672 142.772 52.572 149.072 73.817C164.372 33.488 113.064 44.47 117.385 20.705" fill="#211915"/>
<path d="M117.388 20.705C97.583 51.672 142.772 52.572 149.072 73.817C164.372 33.488 113.064 44.47 117.385 20.705" fill="#211915"/>
<g filter="url(#filter1_d_105_38)">
<path d="M148.354 39.429C147.634 36.188 146.013 34.029 142.593 33.308C146.554 17.284 108.385 22.145 116.847 0C117.927 14.763 164.918 7.382 148.714 31.147C149.582 32.3716 150.017 33.8502 149.952 35.3496C149.887 36.8491 149.325 38.2843 148.354 39.429" fill="#211915"/>
</g>
<g filter="url(#filter2_d_105_38)">
<path fill-rule="evenodd" clip-rule="evenodd" d="M128.91 0.179993C127.29 3.24099 126.569 5.94099 127.29 8.27999L144.754 13.68C138.993 10.799 129.454 7.37999 128.91 0.179993" fill="#211915"/>
</g>
<path fill-rule="evenodd" clip-rule="evenodd" d="M128.19 22.865C135.39 23.405 138.99 30.065 138.452 31.507C135.752 34.207 128.73 29.166 128.19 22.865Z" fill="#211915"/>
<g filter="url(#filter3_d_105_38)">
<path fill-rule="evenodd" clip-rule="evenodd" d="M101.184 46.631C90.201 70.216 43.751 47.891 62.115 109.286C55.993 58.514 100.284 84.8 101.184 46.631Z" fill="#211915"/>
</g>
<path fill-rule="evenodd" clip-rule="evenodd" d="M63.194 114.686C63.374 114.506 63.554 114.146 63.914 113.966L64.994 113.426C65.382 113.435 65.7584 113.56 66.074 113.786C66.2993 114.032 66.4272 114.352 66.434 114.686V116.306C66.284 116.797 66.1036 117.278 65.894 117.746C65.714 118.106 65.354 118.106 65.354 117.926V117.026C65.1685 116.584 64.8551 116.208 64.454 115.946C64.0541 115.722 63.6318 115.541 63.194 115.406C62.834 115.406 62.834 115.226 63.014 115.046C63.014 114.866 63.014 114.866 63.194 114.686V114.686ZM67.515 114.506C67.695 114.326 67.875 113.966 68.235 113.786L69.315 113.246C69.703 113.255 70.0794 113.38 70.395 113.606C70.6203 113.852 70.7482 114.172 70.755 114.506V116.126C70.605 116.617 70.4246 117.098 70.215 117.566C70.035 117.926 69.675 117.926 69.675 117.746V116.846C69.4895 116.404 69.1761 116.028 68.775 115.766C68.415 115.586 67.875 115.406 67.515 115.226C67.4467 115.155 67.395 115.07 67.3639 114.976C67.3328 114.883 67.3229 114.784 67.335 114.686L67.515 114.506ZM58.873 115.046C59.053 114.866 59.233 114.506 59.593 114.326L60.673 113.786C61.061 113.795 61.4374 113.92 61.753 114.146C61.9783 114.392 62.1062 114.712 62.113 115.046V116.666C61.963 117.157 61.7826 117.638 61.573 118.106C61.393 118.466 61.033 118.466 61.033 118.286V117.386C60.8475 116.944 60.5341 116.568 60.133 116.306C59.773 116.126 59.233 115.946 58.873 115.766C58.8047 115.695 58.753 115.61 58.7219 115.516C58.6908 115.423 58.6809 115.324 58.693 115.226C58.694 115.407 58.694 115.226 58.874 115.046H58.873Z" fill="#211915"/>
<g filter="url(#filter4_d_105_38)">
<path fill-rule="evenodd" clip-rule="evenodd" d="M83.36 75.258C70.397 75.438 65.175 88.758 63.915 95.783C80.479 94.343 69.676 79.583 83.36 75.258" fill="#211915"/>
</g>
<path fill-rule="evenodd" clip-rule="evenodd" d="M90.74 85.7L87.14 102.264L88.58 110.006L92.001 110.186C91.8121 110.004 91.6781 109.772 91.6145 109.518C91.5508 109.263 91.56 108.996 91.641 108.746C91.7757 108.475 91.9587 108.231 92.181 108.026C92.361 107.666 92.721 107.486 93.081 107.126C93.5434 106.74 94.1045 106.49 94.701 106.406C95.3392 106.417 95.962 106.604 96.501 106.946L96.861 107.306C97.041 107.126 97.221 106.766 97.581 106.586C98.0434 106.2 98.6045 105.95 99.201 105.866C99.8392 105.877 100.462 106.064 101.001 106.406C101.181 106.586 101.361 106.766 101.361 106.946L101.901 106.406C102.363 106.02 102.924 105.77 103.521 105.686H103.881L103.521 105.326L100.821 105.146C90.381 102.8 90.201 91.281 90.74 85.7Z" fill="#211915"/>
<path fill-rule="evenodd" clip-rule="evenodd" d="M109.105 95.242L105.505 111.806L106.945 119.548L110.366 119.728C110.177 119.546 110.043 119.314 109.979 119.06C109.916 118.805 109.925 118.538 110.006 118.288C110.141 118.017 110.324 117.773 110.546 117.568C110.726 117.208 111.086 117.028 111.446 116.668C111.908 116.282 112.47 116.032 113.066 115.948C113.704 115.959 114.327 116.146 114.866 116.488L115.226 116.848C115.406 116.668 115.586 116.308 115.946 116.128C116.408 115.742 116.97 115.492 117.566 115.408C118.204 115.419 118.827 115.606 119.366 115.948C119.546 116.128 119.726 116.308 119.726 116.488L120.266 115.948C120.728 115.562 121.289 115.312 121.886 115.228H122.246L121.886 114.868L119.186 114.688C108.746 112.342 108.566 100.823 109.105 95.242Z" fill="#211915"/>
<path fill-rule="evenodd" clip-rule="evenodd" d="M115.587 117.747C115.767 117.567 115.947 117.207 116.307 117.027L117.387 116.487C117.775 116.496 118.151 116.621 118.467 116.847C118.692 117.093 118.82 117.413 118.827 117.747V119.367C118.677 119.858 118.497 120.339 118.287 120.807C118.107 121.167 117.747 121.167 117.747 120.987V120.087C117.562 119.645 117.248 119.269 116.847 119.007C116.487 118.827 115.947 118.647 115.587 118.467C115.519 118.396 115.467 118.311 115.436 118.217C115.405 118.124 115.395 118.025 115.407 117.927C115.407 118.107 115.407 117.927 115.587 117.747V117.747ZM119.908 117.567C120.088 117.387 120.268 117.027 120.628 116.847L121.708 116.307C122.096 116.316 122.472 116.441 122.788 116.667C123.013 116.913 123.141 117.233 123.148 117.567V119.187C122.998 119.678 122.818 120.159 122.608 120.627C122.428 120.987 122.068 120.987 122.068 120.807V119.907C121.883 119.465 121.569 119.089 121.168 118.827C120.808 118.647 120.268 118.467 119.908 118.287C119.84 118.216 119.788 118.131 119.757 118.037C119.726 117.944 119.716 117.845 119.728 117.747L119.908 117.567ZM111.266 118.107C111.446 117.927 111.626 117.567 111.986 117.387L113.066 116.847C113.454 116.856 113.83 116.981 114.146 117.207C114.371 117.453 114.499 117.773 114.506 118.107V119.727C114.356 120.218 114.176 120.699 113.966 121.167C113.786 121.527 113.426 121.527 113.426 121.347V120.447C113.241 120.005 112.927 119.629 112.526 119.367C112.166 119.187 111.626 119.007 111.266 118.827C111.198 118.756 111.146 118.671 111.115 118.577C111.084 118.484 111.074 118.385 111.086 118.287C110.906 118.468 111.086 118.468 111.266 118.107V118.107Z" fill="#211915"/>
<path fill-rule="evenodd" clip-rule="evenodd" d="M121.888 99.923L120.448 106.765L121.708 113.247L124.408 113.427C124.247 113.264 124.142 113.054 124.11 112.827C124.077 112.6 124.119 112.368 124.228 112.167C124.408 111.987 124.408 111.807 124.588 111.627C124.768 111.447 124.948 111.087 125.308 110.907C125.649 110.58 126.096 110.388 126.568 110.367C127.1 110.353 127.617 110.546 128.008 110.907L128.368 111.267L128.908 110.727C129.249 110.4 129.696 110.208 130.168 110.187C130.7 110.173 131.217 110.366 131.608 110.727L131.968 111.087L132.328 110.727C132.669 110.4 133.116 110.208 133.588 110.187H133.768L133.588 109.827L131.247 109.647C126.026 108.387 124.047 104.066 123.325 99.925L121.888 99.923Z" fill="#211915"/>
<path fill-rule="evenodd" clip-rule="evenodd" d="M128.91 111.806L129.45 111.266C129.693 111.035 130.015 110.906 130.35 110.906C130.685 110.906 131.007 111.035 131.25 111.266C131.43 111.446 131.43 111.626 131.61 111.986V113.426C131.463 113.859 131.283 114.281 131.07 114.686C130.89 114.866 130.71 115.046 130.71 114.866V114.146C130.675 113.948 130.591 113.761 130.465 113.604C130.339 113.447 130.176 113.324 129.99 113.246C129.63 113.066 129.27 113.066 128.91 112.886C128.807 112.793 128.743 112.664 128.73 112.526C128.55 111.986 128.73 111.986 128.91 111.806ZM132.331 111.626L132.871 111.086C133.114 110.855 133.436 110.726 133.771 110.726C134.106 110.726 134.428 110.855 134.671 111.086C134.851 111.266 134.851 111.446 135.031 111.806V113.246C134.884 113.679 134.704 114.101 134.491 114.506C134.311 114.686 134.131 114.866 134.131 114.686V113.966C134.096 113.768 134.012 113.581 133.886 113.424C133.76 113.267 133.597 113.144 133.411 113.066C133.051 112.886 132.691 112.886 132.331 112.706C132.228 112.613 132.164 112.484 132.151 112.346C132.149 111.986 132.149 111.806 132.331 111.626ZM125.131 112.166L125.671 111.626C125.914 111.395 126.236 111.266 126.571 111.266C126.906 111.266 127.228 111.395 127.471 111.626C127.651 111.806 127.651 111.986 127.831 112.346V113.786C127.684 114.219 127.504 114.641 127.291 115.046C127.111 115.226 126.931 115.406 126.931 115.226V114.506C126.896 114.308 126.812 114.121 126.686 113.964C126.56 113.807 126.397 113.684 126.211 113.606C125.851 113.426 125.491 113.426 125.131 113.246C125.028 113.153 124.964 113.024 124.951 112.886C124.949 112.346 125.129 112.346 125.129 112.166H125.131Z" fill="#211915"/>
<path fill-rule="evenodd" clip-rule="evenodd" d="M97.583 108.025C97.763 107.845 97.943 107.485 98.303 107.305L99.383 106.765C99.771 106.774 100.147 106.899 100.463 107.125C100.688 107.371 100.816 107.691 100.823 108.025V109.645C100.673 110.136 100.493 110.617 100.283 111.085C100.103 111.445 99.743 111.445 99.743 111.265V110.365C99.5575 109.923 99.2441 109.547 98.843 109.285C98.483 109.105 97.943 108.925 97.583 108.745C97.5147 108.674 97.463 108.589 97.4319 108.495C97.4008 108.402 97.3909 108.303 97.403 108.205L97.583 108.025V108.025ZM101.724 108.025C101.904 107.845 102.084 107.485 102.444 107.305L103.524 106.765C103.912 106.774 104.288 106.899 104.604 107.125C104.829 107.371 104.957 107.691 104.964 108.025V109.645C104.814 110.136 104.634 110.617 104.424 111.085C104.244 111.445 103.884 111.445 103.884 111.265V110.365C103.699 109.923 103.385 109.547 102.984 109.285C102.624 109.105 102.084 108.925 101.724 108.745C101.656 108.674 101.604 108.589 101.573 108.495C101.542 108.402 101.532 108.303 101.544 108.205L101.724 108.025ZM93.262 108.565C93.442 108.385 93.622 108.025 93.982 107.845L95.062 107.305C95.45 107.314 95.8264 107.439 96.142 107.665C96.3673 107.911 96.4952 108.231 96.502 108.565V110.185C96.352 110.676 96.1716 111.157 95.962 111.625C95.782 111.985 95.422 111.985 95.422 111.805V110.905C95.2365 110.463 94.9231 110.087 94.522 109.825C94.162 109.645 93.622 109.465 93.262 109.285C93.1937 109.214 93.142 109.129 93.1109 109.035C93.0798 108.942 93.0699 108.843 93.082 108.745C92.902 108.745 93.082 108.745 93.262 108.565V108.565Z" fill="#211915"/>
<defs>
<filter id="filter0_d_105_38" x="104.13" y="22.865" width="46.0652" height="69.934" filterUnits="userSpaceOnUse" color-interpolation-filters="sRGB">
<feFlood flood-opacity="0" result="BackgroundImageFix"/>
<feColorMatrix in="SourceAlpha" type="matrix" values="0 0 0 0 0 0 0 0 0 0 0 0 0 0 0 0 0 0 127 0" result="hardAlpha"/>
<feOffset dy="4"/>
<feGaussianBlur stdDeviation="2"/>
<feComposite in2="hardAlpha" operator="out"/>
<feColorMatrix type="matrix" values="0 0 0 0 0 0 0 0 0 0 0 0 0 0 0 0 0 0 0.25 0"/>
<feBlend mode="normal" in2="BackgroundImageFix" result="effect1_dropShadow_105_38"/>
<feBlend mode="normal" in="SourceGraphic" in2="effect1_dropShadow_105_38" result="shape"/>
</filter>
<filter id="filter1_d_105_38" x="111.619" y="0" width="44.4912" height="47.429" filterUnits="userSpaceOnUse" color-interpolation-filters="sRGB">
<feFlood flood-opacity="0" result="BackgroundImageFix"/>
<feColorMatrix in="SourceAlpha" type="matrix" values="0 0 0 0 0 0 0 0 0 0 0 0 0 0 0 0 0 0 127 0" result="hardAlpha"/>
<feOffset dy="4"/>
<feGaussianBlur stdDeviation="2"/>
<feComposite in2="hardAlpha" operator="out"/>
<feColorMatrix type="matrix" values="0 0 0 0 0 0 0 0 0 0 0 0 0 0 0 0 0 0 0.25 0"/>
<feBlend mode="normal" in2="BackgroundImageFix" result="effect1_dropShadow_105_38"/>
<feBlend mode="normal" in="SourceGraphic" in2="effect1_dropShadow_105_38" result="shape"/>
</filter>
<filter id="filter2_d_105_38" x="123.01" y="0.179993" width="25.7435" height="21.5" filterUnits="userSpaceOnUse" color-interpolation-filters="sRGB">
<feFlood flood-opacity="0" result="BackgroundImageFix"/>
<feColorMatrix in="SourceAlpha" type="matrix" values="0 0 0 0 0 0 0 0 0 0 0 0 0 0 0 0 0 0 127 0" result="hardAlpha"/>
<feOffset dy="4"/>
<feGaussianBlur stdDeviation="2"/>
<feComposite in2="hardAlpha" operator="out"/>
<feColorMatrix type="matrix" values="0 0 0 0 0 0 0 0 0 0 0 0 0 0 0 0 0 0 0.25 0"/>
<feBlend mode="normal" in2="BackgroundImageFix" result="effect1_dropShadow_105_38"/>
<feBlend mode="normal" in="SourceGraphic" in2="effect1_dropShadow_105_38" result="shape"/>
</filter>
<filter id="filter3_d_105_38" x="53.8667" y="46.631" width="51.3173" height="70.655" filterUnits="userSpaceOnUse" color-interpolation-filters="sRGB">
<feFlood flood-opacity="0" result="BackgroundImageFix"/>
<feColorMatrix in="SourceAlpha" type="matrix" values="0 0 0 0 0 0 0 0 0 0 0 0 0 0 0 0 0 0 127 0" result="hardAlpha"/>
<feOffset dy="4"/>
<feGaussianBlur stdDeviation="2"/>
<feComposite in2="hardAlpha" operator="out"/>
<feColorMatrix type="matrix" values="0 0 0 0 0 0 0 0 0 0 0 0 0 0 0 0 0 0 0.25 0"/>
<feBlend mode="normal" in2="BackgroundImageFix" result="effect1_dropShadow_105_38"/>
<feBlend mode="normal" in="SourceGraphic" in2="effect1_dropShadow_105_38" result="shape"/>
</filter>
<filter id="filter4_d_105_38" x="59.915" y="75.258" width="27.445" height="28.525" filterUnits="userSpaceOnUse" color-interpolation-filters="sRGB">
<feFlood flood-opacity="0" result="BackgroundImageFix"/>
<feColorMatrix in="SourceAlpha" type="matrix" values="0 0 0 0 0 0 0 0 0 0 0 0 0 0 0 0 0 0 127 0" result="hardAlpha"/>
<feOffset dy="4"/>
<feGaussianBlur stdDeviation="2"/>
<feComposite in2="hardAlpha" operator="out"/>
<feColorMatrix type="matrix" values="0 0 0 0 0 0 0 0 0 0 0 0 0 0 0 0 0 0 0.25 0"/>
<feBlend mode="normal" in2="BackgroundImageFix" result="effect1_dropShadow_105_38"/>
<feBlend mode="normal" in="SourceGraphic" in2="effect1_dropShadow_105_38" result="shape"/>
</filter>
<linearGradient id="paint0_linear_105_38" x1="0" y1="72.6744" x2="115.036" y2="72.6744" gradientUnits="userSpaceOnUse">
<stop stop-color="#E1C86A"/>
<stop offset="0.302" stop-color="#997124"/>
<stop offset="0.601" stop-color="#D6BA5E"/>
<stop offset="0.75" stop-color="#D6BA5E"/>
<stop offset="1" stop-color="#D6BA5E"/>
</linearGradient>
<linearGradient id="paint1_linear_105_38" x1="108.13" y1="53.832" x2="146.119" y2="53.832" gradientUnits="userSpaceOnUse">
<stop stop-color="#E1C86A"/>
<stop offset="0.302" stop-color="#997124"/>
<stop offset="0.601" stop-color="#D6BA5E"/>
<stop offset="0.75" stop-color="#D6BA5E"/>
<stop offset="1" stop-color="#D6BA5E"/>
</linearGradient>
</defs>
</svg>
